<svg width="30" height="27" viewBox="0 0 30 27" fill="none" xmlns="http://www.w3.org/2000/svg">
<path d="M28.492 0.0472783C27.9875 0.206657 0.672444 11.1861 0.496445 11.3041C0.120981 11.5462 -0.0843513 12.1069 0.0329814 12.5497C0.109248 12.8389 0.361513 13.1754 0.596178 13.2993C0.695911 13.3525 2.39137 14.0195 4.37429 14.781C6.35721 15.5424 7.98813 16.174 7.99987 16.1859C8.0116 16.1977 8.48093 17.9685 9.04413 20.1172C9.60732 22.2659 10.1001 24.0781 10.1353 24.1548C10.4228 24.7215 11.162 24.9753 11.7134 24.6979C11.7956 24.6565 12.7812 23.9541 13.9017 23.1395L15.9492 21.6638L16.483 22.0356C18.3545 23.3343 23.4643 26.7993 23.6286 26.8878C23.7576 26.9587 23.9571 26.9941 24.1918 27C24.4968 27 24.5907 26.9764 24.8078 26.8229C24.9603 26.7167 25.1128 26.5396 25.1891 26.3802C25.3651 26.026 30.0408 1.37543 29.9997 1.04487C29.9059 0.336521 29.1549 -0.159324 28.492 0.0472783ZM23.212 4.97621C23.0008 5.18282 20.3491 7.74468 17.3161 10.6784C10.898 16.8706 10.9214 16.8529 10.8628 17.1126C10.8393 17.213 10.8041 17.2779 10.7806 17.2484C10.7572 17.2248 10.5929 16.6581 10.4228 15.997C10.0884 14.7278 9.95345 14.4327 9.61319 14.2556C9.51932 14.2084 8.36946 13.7539 7.04947 13.2462C5.72948 12.7386 4.61482 12.3017 4.56789 12.2781C4.50922 12.2427 6.19294 11.5462 9.72466 10.1295C12.611 8.97249 16.8819 7.26064 19.2227 6.31618C21.5635 5.37761 23.4995 4.60433 23.5347 4.60433C23.564 4.59843 23.4232 4.76961 23.212 4.97621ZM26.8963 4.99392C26.867 5.1533 26.0574 9.42701 25.0952 14.5035C24.1331 19.5741 23.3352 23.7416 23.3176 23.7534C23.2766 23.8006 13.8841 17.3901 13.9017 17.3369C13.9193 17.2779 26.867 4.72239 26.9139 4.72239C26.9315 4.71649 26.9256 4.84045 26.8963 4.99392ZM12.5582 19.3557C13.2505 19.828 13.8196 20.2235 13.8196 20.2412C13.8196 20.2943 11.9422 21.6106 11.9129 21.5811C11.8953 21.5634 11.6958 20.8492 11.4729 19.9932C11.25 19.1432 11.0505 18.3876 11.027 18.3227C10.9977 18.2165 11.0094 18.2224 11.1444 18.3522C11.2265 18.4349 11.8601 18.8835 12.5582 19.3557Z" fill="#FF0100"/>
</svg>
